PathFileType	4	(X/Y/Z)	58_2_24_p1_0-235.trc
DataRate	CameraRate	NumFrames	NumMarkers	Units	OrigDataRate	OrigDataStartFrame	OrigNumFrames
34.0	34.0	5	27	m	34.0	118	236
Frame#	Time	RHip			RKnee			RAnkle			RBigToe			RSmallToe			RHeel			LHip			LKnee			LAnkle			LBigToe			LSmallToe			LHeel			Neck			Head			Nose			RShoulder			RElbow			RWrist			RThumb			RIndex			RPinky			LShoulder			LElbow			LWrist			LThumb			LIndex			LPinky			
		X1	Y1	Z1	X2	Y2	Z2	X3	Y3	Z3	X4	Y4	Z4	X5	Y5	Z5	X6	Y6	Z6	X7	Y7	Z7	X8	Y8	Z8	X9	Y9	Z9	X10	Y10	Z10	X11	Y11	Z11	X12	Y12	Z12	X13	Y13	Z13	X14	Y14	Z14	X15	Y15	Z15	X16	Y16	Z16	X17	Y17	Z17	X18	Y18	Z18	X19	Y19	Z19	X20	Y20	Z20	X21	Y21	Z21	X22	Y22	Z22	X23	Y23	Z23	X24	Y24	Z24	X25	Y25	Z25	X26	Y26	Z26	X27	Y27	Z27	
118	3.4705882352941178	0.3290547956264441	0.5309989906940332	0.9814108356752786	0.31836911916726507	0.582559647710242	1.4433110141941816	0.3135116458017314	0.7712360620261622	1.8905346568155275	0.2802019304444733	0.5307652527266602	1.9423578763034557	0.34986775736138803	0.5750641565783583	1.9387300166536439	0.28949362034452947	0.83577479687056	1.9423273472587717	0.14800430620823776	0.47109393594925664	0.9845372923564485	0.1366617789926623	0.6314763966420689	1.4579875260169814	0.12758127672779118	0.7381543085967183	1.879519409191089	0.13454020980499265	0.5556073664785746	1.9461811011975467	0.07240658735679777	0.6130681409860569	1.9489449452466399	0.14061418665044892	0.8174464104154715	1.9287724750532613	0.21968484589151763	0.43276435488499837	0.4238053194456053	0.22992974034220096	0.3189252356032975	0.1958587969247757	0.24228772384438696	0.3290955984338845	0.34729075607365606	0.3675201142056213	0.4185825088496447	0.48345623765507084	0.4364656365046642	0.4434125253055782	0.7303508459175292	0.5364845616552756	0.251213952288556	0.7420416574413279	0.608604709801662	0.1147594102664274	0.7181148691101986	0.6243312780240725	0.09285285362813042	0.7273367362798504	0.5848886505509899	0.09442572553662022	0.7524490841955411	0.06778393924996896	0.3841325229610516	0.5150252587766262	0.15154890303114402	0.28031475643095727	0.7600024257733761	0.3282608786533428	0.13414967980061712	0.7317434421339456	0.40379789230140745	0.10646464832570861	0.7214869391190895	0.4371798206786935	0.03501853353167428	0.7265907771167445	0.4575778982693632	0.04184074180600607	0.7375162009531848
119	3.5	0.3294651639711845	0.5302722335118472	0.9778546921838789	0.3184012274694505	0.5829444247130314	1.4435001044645164	0.313513398465928	0.7714827815959588	1.8906205877652829	0.28394306248958057	0.5444471860320762	1.948113599148233	0.35358545518515877	0.5882901577957371	1.9443783052896246	0.2895070940639126	0.8358139008546798	1.9425703092442952	0.14872624715771648	0.4704135878549258	0.9806660569044047	0.13735105940294257	0.6342704955900149	1.4630308976857505	0.12775247527032957	0.7388109402280215	1.880092436058556	0.13460556845308227	0.5558537220388001	1.9463176084759881	0.07324944086734424	0.6160973130718096	1.9542503460557863	0.1411092870875194	0.8188294361108157	1.9301369425523145	0.22419161165887458	0.41921942333012646	0.4245775464193359	0.23362394293191271	0.30721456022545723	0.1974114161000731	0.24264105676528805	0.32821858628033046	0.3440148635870975	0.37193499935361424	0.4191625688694782	0.4835049899759946	0.4350724899935347	0.42888094128629056	0.7288009814606458	0.5445224133936347	0.2138405699500481	0.733266489928264	0.6219272373660586	0.1267915584741033	0.7011527406776724	0.6404812076960126	0.051961970933339215	0.7170267214395195	0.596152194411701	0.05960480938763669	0.7347789198290772	0.0729371566998579	0.370296415263859	0.5121597643663335	0.17050514622630092	0.22930045576491273	0.7389443744636596	0.3445079694233054	0.06668513816979481	0.7207656503440989	0.4277554838814535	0.02199112617518119	0.7076366362163512	0.4680549831670304	-0.05007466190188301	0.7127864023654487	0.4743680274340913	-0.04653561476162479	0.7252203684741392
120	3.5294117647058822	0.3290970689445481	0.5315731683069386	0.9814935219060057	0.318437087680026	0.5823947407079337	1.4431612258489397	0.313587239151846	0.7715886575764282	1.8900837758593783	0.28829511508238	0.5439413035160476	1.9476419852171285	0.3571727896674101	0.5707139233220322	1.9371369527380002	0.294955755724591	0.8498703540536869	1.9423193826129717	0.14822081803124468	0.4697264581606107	0.9726323607198083	0.13720060260982977	0.634244820778726	1.4628803911545443	0.1269306674690755	0.7406802433108276	1.8761539230913276	0.13331337857530098	0.5848057444987415	1.9590046808589852	0.07785937960872616	0.6186900169842864	1.9553950968493665	0.14145864983456824	0.8203473069750566	1.933747186778097	0.22835501671197758	0.40579046633257904	0.42890387294021276	0.2368813956003765	0.3178082101391019	0.19605958095626164	0.24954826173649858	0.32642728207592536	0.34373189550207744	0.37653427823922647	0.43214524255014775	0.48312542003218406	0.4454419113780653	0.40484796286875124	0.7317011813961306	0.5591373366266764	0.22506117030689746	0.733386914579605	0.6463349241524193	0.16694142516678567	0.6742684294440603	0.6572432468262829	0.11157777564022037	0.7030263667020031	0.6174508688814547	0.036576169360751115	0.7283575208601665	0.07687369901191764	0.3719542951378627	0.5082382140529279	0.17289434603790585	0.23841306124669343	0.7247584544398141	0.36058113268361947	0.04912468385042444	0.7100265182772016	0.45689929882697894	0.014570254795491917	0.7004442747757885	0.47317048431361186	-0.07453750444167342	0.7036088200464242	0.4725916921988233	-0.06998572185582315	0.7188774887316419
121	3.5588235294117645	0.3293607960180083	0.5328489871440131	0.9817704622936566	0.32724321473829937	0.5977398599590525	1.447164916630295	0.31357418743339344	0.7714691331080462	1.8900549330468916	0.28841085731649263	0.5449922420541495	1.9481386069104671	0.3572647214021099	0.5722135628996132	1.937262584083806	0.29056084206624594	0.8339678440554906	1.9360163025319357	0.15094313403527287	0.48379978254266187	0.9774665856759658	0.13732618296628235	0.634199525857839	1.4629871440456415	0.1272331502475775	0.7388292764996255	1.8798694135038478	0.13766683018136056	0.5695761237891488	1.9522759087748862	0.07788250513620833	0.6182636808759252	1.9552854914469928	0.1404699947125704	0.8167477610133635	1.928442610338443	0.23293236628003972	0.4065656853007762	0.4286001586152375	0.24117034398155654	0.31901189038174976	0.19588474766846983	0.2538737949296563	0.3272634488503779	0.3429318120632897	0.38526588712653964	0.4458569488549023	0.482624330928958	0.4669305449982849	0.4051918731372525	0.7421364200786116	0.5655080043405601	0.21350882909340965	0.7286422228151487	0.6420579314432188	0.13167046124737514	0.6585800268101649	0.6651880521385789	0.09348742330552166	0.6666939983861567	0.643090746541946	0.023745922304292757	0.7156041639807265	0.08645165964880697	0.3982756435812704	0.5067601123921659	0.18538681142413854	0.25989190413920593	0.7169354107476574	0.389549697476902	0.0922581788132017	0.69483627189488	0.4880613468820582	0.046208657726997664	0.702385693185201	0.5057746804855493	-0.022848276941949384	0.7001761502606862	0.5035480926347771	-0.024844508814997293	0.713654324179804
122	3.588235294117647	0.33282470491269045	0.5474027770811479	0.9873624217912005	0.32720121326954643	0.598248887573691	1.4474460282503951	0.31364506092391725	0.7716369610144976	1.8899230165389294	0.2885135153383567	0.5445331505404103	1.9480559680942415	0.3574403036543687	0.5713481285074422	1.9373370424291798	0.290664442432924	0.8340679665911376	1.9361713060774604	0.15145483503521678	0.48614781484749464	0.9818054915930233	0.13737524602127227	0.6344278148673436	1.4630490382596664	0.13026692204255466	0.7561687991734455	1.882005816733995	0.13773318953473787	0.5695852298903976	1.9521877963636556	0.07789280938520214	0.618547978241544	1.955426514866787	0.14371871763579055	0.832512056742756	1.9343064113205815	0.23970278398578024	0.40628420450470815	0.4246840849404334	0.2416145313686913	0.3205970607460935	0.1990005081752037	0.2577928274718761	0.3148677725831449	0.34353773602786786	0.39346244445662854	0.470992013897908	0.4813512956067694	0.4667615382367052	0.42349199510482677	0.7295029944288605	0.5652135754257092	0.2502730141715502	0.7302565120674192	0.6395497347100585	0.15190886091409633	0.6522730791495464	0.6695383278527787	0.09197056061137858	0.6568799723013812	0.6526494523210716	0.06195282053106733	0.7104750152006724	0.09395549772401535	0.398207409018382	0.5063914312956791	0.19251923402044277	0.273565603728663	0.7099523521404828	0.4036003411671294	0.09853739669651532	0.6909742193339803	0.4974379589129174	0.07175973236362776	0.6921939218366941	0.525102107156768	0.01080018631881017	0.6991256117405618	0.5230657095575588	0.015308689040567295	0.7158797892972603
